<svg xmlns="http://www.w3.org/2000/svg" width="240" height="75"><path fill="#fff" d="M25.533 55.342c.257 0 .428-.172.428-.428v-1.158c0-.257-.171-.429-.428-.429h-3.045c-.172 0-.257-.085-.257-.256v-30.797c0-.172.085-.257.257-.257h3.045c.257 0 .428-.172.428-.428v-1.158c0-.257-.171-.429-.428-.429h-5.104c-.257 0-.429.172-.429.429v34.483c0 .256.172.428.429.428h5.104z"/><path fill="#fff" d="M32.451 49.143c0 .203.136.339.339.339h4.3c.203 0 .339-.136.339-.339v-8.669c0-.136.068-.203.203-.203h8.262c.203 0 .339-.136.339-.338v-3.59c0-.203-.136-.338-.339-.338h-8.262c-.136 0-.203-.068-.203-.203v-4.841c0-.136.068-.203.203-.203h9.92c.203 0 .339-.136.339-.338v-3.623c0-.203-.136-.338-.339-.338h-14.762c-.203 0-.339.136-.339.338v22.346z"/><path fill="#fff" d="M66.616 49.482c-.305 0-.407-.102-.508-.339l-3.962-8.431h-3.081c-.136 0-.203.068-.203.203v8.228c0 .203-.136.339-.339.339h-4.301c-.203 0-.338-.136-.338-.339v-22.348c0-.203.136-.339.338-.339h9.176c4.706 0 7.821 2.946 7.821 7.145 0 2.946-1.557 5.283-4.098 6.399l4.538 9.075c.102.203 0 .407-.237.407h-4.806zm-3.488-13.003c1.896 0 3.116-1.117 3.116-2.878 0-1.726-1.219-2.844-3.116-2.844h-4.063c-.136 0-.203.068-.203.203v5.316c0 .136.068.203.203.203h4.063"/><path fill="#fff" d="M83.782 26.795c.068-.203.203-.338.44-.338h4.267c.237 0 .372.136.44.338l7.788 22.348c.068.203 0 .339-.237.339h-4.402c-.237 0-.372-.102-.44-.339l-1.321-4.029h-8.059l-1.286 4.029c-.068.237-.203.339-.44.339h-4.436c-.237 0-.304-.136-.237-.339l7.923-22.348zm5.181 14.086l-2.607-8.059h-.102l-2.607 8.059h5.316z"/><path fill="#fff" d="M101.695 44.2c1.219 3.759 4.164 5.655 8.194 5.655 3.894 0 6.738-1.896 8.025-5.113.101-.169.033-.339-.169-.407l-3.691-1.659c-.203-.101-.372-.033-.474.169-.643 1.491-1.727 2.607-3.657 2.607-1.795 0-2.946-.948-3.453-2.539-.271-.846-.372-1.659-.372-4.944s.102-4.098.372-4.944c.508-1.592 1.658-2.539 3.453-2.539 1.931 0 3.014 1.117 3.657 2.607.101.203.271.271.474.169l3.691-1.659c.203-.068.271-.237.169-.407-1.287-3.217-4.131-5.112-8.025-5.112-4.029 0-6.975 1.896-8.194 5.654-.508 1.491-.643 2.675-.643 6.23s.134 4.741.643 6.232"/><path fill="#fff" d="M132.677 49.482c.203 0 .339-.136.339-.339v-18.048c0-.136.068-.203.203-.203h5.824c.203 0 .339-.136.339-.338v-3.759c0-.203-.136-.339-.339-.339h-17.032c-.203 0-.339.136-.339.339v3.759c0 .203.136.338.339.338h5.824c.136 0 .203.068.203.203v18.047c0 .203.135.339.338.339l4.301.001z"/><path fill="#fff" d="M157.033 49.143c0 .203.136.339.339.339h15c.203 0 .339-.136.339-.339v-3.759c0-.203-.136-.339-.339-.339h-10.158c-.136 0-.203-.068-.203-.203v-18.047c0-.203-.136-.338-.339-.338h-4.3c-.203 0-.339.136-.339.338v22.348z"/><path fill="#fff" d="M178.125 49.143c0 .203.136.339.339.339h4.3c.203 0 .339-.136.339-.339v-22.348c0-.203-.136-.338-.339-.338h-4.3c-.203 0-.339.136-.339.338v22.348z"/><path fill="#fff" d="M144.636 49.143c0 .203.136.339.339.339h4.3c.203 0 .339-.136.339-.339v-22.348c0-.203-.136-.338-.339-.338h-4.3c-.203 0-.339.136-.339.338v22.348z"/><path fill="#fff" d="M196.273 26.795c.068-.203.203-.338.44-.338h4.267c.237 0 .372.136.44.338l7.788 22.348c.068.203 0 .339-.237.339h-4.402c-.237 0-.372-.102-.44-.339l-1.321-4.029h-8.059l-1.286 4.029c-.068.237-.203.339-.44.339h-4.436c-.237 0-.304-.136-.237-.339l7.923-22.348zm5.181 14.086l-2.607-8.059h-.102l-2.607 8.059h5.316z"/><path fill="#fff" d="M219.571 55.342c.257 0 .429-.172.429-.428v-34.485c0-.257-.172-.429-.429-.429h-5.104c-.257 0-.428.172-.428.429v1.158c0 .256.171.428.428.428h3.045c.172 0 .257.085.257.257v30.794c0 .171-.085.256-.257.256h-3.045c-.257 0-.428.172-.428.429v1.158c0 .256.171.428.428.428h5.104v.005z"/></svg>