<?xml version="1.0" encoding="utf-8"?>
<!-- Generator: Adobe Illustrator 17.0.0, SVG Export Plug-In . SVG Version: 6.00 Build 0)  -->
<!DOCTYPE svg PUBLIC "-//W3C//DTD SVG 1.1//EN" "http://www.w3.org/Graphics/SVG/1.1/DTD/svg11.dtd">
<svg version="1.1" id="Layer_1" xmlns="http://www.w3.org/2000/svg" xmlns:xlink="http://www.w3.org/1999/xlink" x="0px" y="0px"
	 width="240px" height="75px" viewBox="0 0 240 75" enable-background="new 0 0 240 75" xml:space="preserve">
<path fill="#FFFFFF" d="M25.533,55.342c0.257,0,0.428-0.172,0.428-0.428v-1.158c0-0.257-0.171-0.429-0.428-0.429h-3.045
	c-0.172,0-0.257-0.085-0.257-0.256V22.274c0-0.172,0.085-0.257,0.257-0.257h3.045c0.257,0,0.428-0.172,0.428-0.428v-1.158
	c0-0.257-0.171-0.429-0.428-0.429h-5.104c-0.257,0-0.429,0.172-0.429,0.429v34.483c0,0.256,0.172,0.428,0.429,0.428
	C20.429,55.342,25.533,55.342,25.533,55.342z"/>
<path fill="#FFFFFF" d="M32.451,49.143c0,0.203,0.136,0.339,0.339,0.339h4.3c0.203,0,0.339-0.136,0.339-0.339v-8.669
	c0-0.136,0.068-0.203,0.203-0.203h8.262c0.203,0,0.339-0.136,0.339-0.338v-3.59c0-0.203-0.136-0.338-0.339-0.338h-8.262
	c-0.136,0-0.203-0.068-0.203-0.203v-4.841c0-0.136,0.068-0.203,0.203-0.203h9.92c0.203,0,0.339-0.136,0.339-0.338v-3.623
	c0-0.203-0.136-0.338-0.339-0.338H32.79c-0.203,0-0.339,0.136-0.339,0.338V49.143z"/>
<path fill="#FFFFFF" d="M66.616,49.482c-0.305,0-0.407-0.102-0.508-0.339l-3.962-8.431h-3.081c-0.136,0-0.203,0.068-0.203,0.203
	v8.228c0,0.203-0.136,0.339-0.339,0.339h-4.301c-0.203,0-0.338-0.136-0.338-0.339V26.795c0-0.203,0.136-0.339,0.338-0.339h9.176
	c4.706,0,7.821,2.946,7.821,7.145c0,2.946-1.557,5.283-4.098,6.399l4.538,9.075c0.102,0.203,0,0.407-0.237,0.407
	C71.422,49.482,66.616,49.482,66.616,49.482z M63.128,36.479c1.896,0,3.116-1.117,3.116-2.878c0-1.726-1.219-2.844-3.116-2.844
	h-4.063c-0.136,0-0.203,0.068-0.203,0.203v5.316c0,0.136,0.068,0.203,0.203,0.203H63.128"/>
<path fill="#FFFFFF" d="M83.782,26.795c0.068-0.203,0.203-0.338,0.44-0.338h4.267c0.237,0,0.372,0.136,0.44,0.338l7.788,22.348
	c0.068,0.203,0,0.339-0.237,0.339h-4.402c-0.237,0-0.372-0.102-0.44-0.339l-1.321-4.029h-8.059l-1.286,4.029
	c-0.068,0.237-0.203,0.339-0.44,0.339h-4.436c-0.237,0-0.304-0.136-0.237-0.339L83.782,26.795z M88.963,40.881l-2.607-8.059h-0.102
	l-2.607,8.059H88.963z"/>
<path fill="#FFFFFF" d="M101.695,44.2c1.219,3.759,4.164,5.655,8.194,5.655c3.894,0,6.738-1.896,8.025-5.113
	c0.101-0.169,0.033-0.339-0.169-0.407l-3.691-1.659c-0.203-0.101-0.372-0.033-0.474,0.169c-0.643,1.491-1.727,2.607-3.657,2.607
	c-1.795,0-2.946-0.948-3.453-2.539c-0.271-0.846-0.372-1.659-0.372-4.944s0.102-4.098,0.372-4.944
	c0.508-1.592,1.658-2.539,3.453-2.539c1.931,0,3.014,1.117,3.657,2.607c0.101,0.203,0.271,0.271,0.474,0.169l3.691-1.659
	c0.203-0.068,0.271-0.237,0.169-0.407c-1.287-3.217-4.131-5.112-8.025-5.112c-4.029,0-6.975,1.896-8.194,5.654
	c-0.508,1.491-0.643,2.675-0.643,6.23S101.186,42.709,101.695,44.2"/>
<path fill="#FFFFFF" d="M132.677,49.482c0.203,0,0.339-0.136,0.339-0.339V31.095c0-0.136,0.068-0.203,0.203-0.203h5.824
	c0.203,0,0.339-0.136,0.339-0.338v-3.759c0-0.203-0.136-0.339-0.339-0.339h-17.032c-0.203,0-0.339,0.136-0.339,0.339v3.759
	c0,0.203,0.136,0.338,0.339,0.338h5.824c0.136,0,0.203,0.068,0.203,0.203v18.047c0,0.203,0.135,0.339,0.338,0.339L132.677,49.482
	L132.677,49.482z"/>
<path fill="#FFFFFF" d="M157.033,49.143c0,0.203,0.136,0.339,0.339,0.339h15c0.203,0,0.339-0.136,0.339-0.339v-3.759
	c0-0.203-0.136-0.339-0.339-0.339h-10.158c-0.136,0-0.203-0.068-0.203-0.203V26.795c0-0.203-0.136-0.338-0.339-0.338h-4.3
	c-0.203,0-0.339,0.136-0.339,0.338L157.033,49.143L157.033,49.143z"/>
<path fill="#FFFFFF" d="M178.125,49.143c0,0.203,0.136,0.339,0.339,0.339h4.3c0.203,0,0.339-0.136,0.339-0.339V26.795
	c0-0.203-0.136-0.338-0.339-0.338h-4.3c-0.203,0-0.339,0.136-0.339,0.338V49.143z"/>
<path fill="#FFFFFF" d="M144.636,49.143c0,0.203,0.136,0.339,0.339,0.339h4.3c0.203,0,0.339-0.136,0.339-0.339V26.795
	c0-0.203-0.136-0.338-0.339-0.338h-4.3c-0.203,0-0.339,0.136-0.339,0.338V49.143z"/>
<path fill="#FFFFFF" d="M196.273,26.795c0.068-0.203,0.203-0.338,0.44-0.338h4.267c0.237,0,0.372,0.136,0.44,0.338l7.788,22.348
	c0.068,0.203,0,0.339-0.237,0.339h-4.402c-0.237,0-0.372-0.102-0.44-0.339l-1.321-4.029h-8.059l-1.286,4.029
	c-0.068,0.237-0.203,0.339-0.44,0.339h-4.436c-0.237,0-0.304-0.136-0.237-0.339L196.273,26.795z M201.454,40.881l-2.607-8.059
	h-0.102l-2.607,8.059H201.454z"/>
<path fill="#FFFFFF" d="M219.571,55.342c0.257,0,0.429-0.172,0.429-0.428V20.429c0-0.257-0.172-0.429-0.429-0.429h-5.104
	c-0.257,0-0.428,0.172-0.428,0.429v1.158c0,0.256,0.171,0.428,0.428,0.428h3.045c0.172,0,0.257,0.085,0.257,0.257v30.794
	c0,0.171-0.085,0.256-0.257,0.256h-3.045c-0.257,0-0.428,0.172-0.428,0.429v1.158c0,0.256,0.171,0.428,0.428,0.428h5.104V55.342z"/>
</svg>
